<svg xmlns="http://www.w3.org/2000/svg" viewBox="0 0 285 40" width="570" height="80"><title>Andreia Martins, Advogada</title><clipPath id="am-logo"><rect x="0" y="0" width="56" height="36"/></clipPath><path d="M2.4 40 L16 6 L28 36 L40 6 L53.6 40" fill="none" stroke="#0F1B2D" stroke-width="3.2" stroke-linejoin="miter" stroke-miterlimit="10" clip-path="url(#am-logo)"/><line x1="8.4" x2="23.6" y1="25" y2="25" stroke="#2F5680" stroke-width="1.6"/><rect x="70" y="4" width="1" height="32" fill="#0F1B2D" fill-opacity="0.3"/><path d="M88.30 15.40H92.74L92.77 15.55H88.25ZM88.51 19.95Q88.51 19.97 88.49 19.98Q88.48 20.00 88.46 20.00H86.02Q85.99 20.00 85.97 19.98Q85.96 19.97 85.96 19.95Q85.96 19.92 85.98 19.91Q86.00 19.90 86.03 19.90L86.42 19.78Q86.65 19.70 86.87 19.47Q87.09 19.23 87.25 18.68L90.18 8.88Q90.26 8.63 90.17 8.47Q90.08 8.32 89.80 8.24Q89.73 8.20 89.69 8.18Q89.66 8.17 89.66 8.15Q89.66 8.12 89.67 8.11Q89.69 8.10 89.72 8.10H92.40Q92.43 8.10 92.45 8.11Q92.47 8.12 92.47 8.15Q92.47 8.17 92.43 8.19Q92.40 8.21 92.32 8.24Q92.08 8.25 92.03 8.33Q91.98 8.40 92.05 8.59L95.55 19.46Q95.61 19.67 95.76 19.77Q95.90 19.87 96.12 19.89Q96.17 19.90 96.18 19.91Q96.20 19.92 96.20 19.95Q96.20 19.97 96.19 19.98Q96.17 20.00 96.14 20.00H92.95Q92.93 20.00 92.91 19.98Q92.89 19.97 92.89 19.95Q92.89 19.92 92.92 19.91Q92.94 19.91 92.98 19.90L93.44 19.85Q93.63 19.80 93.68 19.69Q93.73 19.57 93.68 19.40L90.28 8.75L90.45 8.45L87.39 18.71Q87.30 19.01 87.37 19.23Q87.44 19.46 87.63 19.60Q87.83 19.74 88.12 19.81L88.44 19.90Q88.47 19.91 88.49 19.92Q88.51 19.93 88.51 19.95Z M103.72 19.95Q103.72 19.97 103.71 19.98Q103.69 20.00 103.65 20.00H100.39Q100.36 20.00 100.35 19.98Q100.33 19.97 100.33 19.95Q100.33 19.92 100.41 19.90L101.09 19.70Q101.38 19.61 101.57 19.43Q101.75 19.24 101.75 18.88V9.88Q101.75 9.75 101.74 9.69Q101.72 9.62 101.62 9.49L100.85 8.27Q100.82 8.22 100.79 8.18Q100.76 8.14 100.76 8.13Q100.76 8.11 100.78 8.10Q100.80 8.10 100.83 8.10H102.73Q102.79 8.10 102.82 8.15Q102.86 8.20 102.93 8.32L109.49 18.56L109.40 18.73V9.22Q109.40 8.86 109.21 8.67Q109.02 8.47 108.72 8.40L107.65 8.20Q107.56 8.18 107.56 8.15Q107.56 8.13 107.58 8.11Q107.60 8.10 107.63 8.10H110.90Q110.93 8.10 110.95 8.11Q110.96 8.13 110.96 8.15Q110.96 8.18 110.88 8.20L110.20 8.40Q109.91 8.47 109.72 8.67Q109.54 8.86 109.54 9.22V18.49Q109.54 18.58 109.57 18.66Q109.60 18.73 109.64 18.80L110.22 19.70Q110.30 19.81 110.33 19.87Q110.36 19.93 110.36 19.97Q110.36 19.97 110.34 19.99Q110.33 20.00 110.28 20.00H108.48Q108.35 20.00 108.35 19.88Q108.35 19.84 108.33 19.78Q108.31 19.73 108.28 19.67L101.63 9.40H101.89V18.89Q101.89 19.24 102.08 19.43Q102.27 19.62 102.55 19.70L103.64 19.90Q103.72 19.92 103.72 19.95Z M115.66 19.95Q115.66 19.91 115.72 19.90L116.57 19.78Q116.71 19.75 116.77 19.70Q116.83 19.65 116.83 19.55V8.57Q116.83 8.45 116.77 8.40Q116.71 8.35 116.56 8.32L115.72 8.20Q115.66 8.18 115.66 8.14Q115.66 8.12 115.67 8.11Q115.69 8.10 115.72 8.10H119.46Q121.01 8.10 122.27 8.55Q123.54 9.00 124.45 9.86Q125.36 10.71 125.85 11.91Q126.34 13.11 126.34 14.61Q126.34 16.30 125.60 17.51Q124.85 18.72 123.53 19.36Q122.21 20.00 120.48 20.00H115.72Q115.68 20.00 115.67 19.99Q115.66 19.97 115.66 19.95ZM120.48 19.86Q121.64 19.86 122.55 19.28Q123.45 18.69 123.97 17.48Q124.50 16.26 124.50 14.38Q124.50 12.93 124.16 11.78Q123.83 10.64 123.19 9.85Q122.54 9.06 121.61 8.65Q120.67 8.24 119.47 8.24H118.58V19.57Q118.58 19.71 118.66 19.79Q118.73 19.86 118.87 19.86Z M140.51 12.21Q140.51 13.07 140.14 13.76Q139.76 14.44 139.09 14.89Q138.42 15.33 137.50 15.49Q137.35 15.51 137.18 15.53Q137.02 15.55 136.85 15.56Q136.69 15.56 136.51 15.56Q135.90 15.56 135.40 15.49Q134.89 15.41 134.49 15.25Q134.08 15.09 133.77 14.83L133.85 14.72Q134.14 14.96 134.51 15.10Q134.88 15.25 135.27 15.31Q135.67 15.37 136.07 15.37Q137.29 15.37 138.02 14.58Q138.74 13.79 138.74 12.23Q138.74 11.07 138.28 10.17Q137.82 9.27 137.00 8.76Q136.18 8.24 135.11 8.24H134.17V19.48Q134.17 19.63 134.24 19.69Q134.31 19.75 134.47 19.78L135.26 19.90Q135.31 19.90 135.33 19.91Q135.34 19.92 135.34 19.95Q135.34 20.00 135.27 20.00H131.31Q131.28 20.00 131.26 19.98Q131.25 19.97 131.25 19.95Q131.25 19.91 131.33 19.90L132.12 19.78Q132.27 19.75 132.35 19.69Q132.42 19.63 132.42 19.48V8.54Q132.42 8.44 132.35 8.39Q132.27 8.34 132.12 8.32L131.33 8.20Q131.25 8.19 131.25 8.15Q131.25 8.13 131.26 8.11Q131.28 8.10 131.31 8.10H135.10Q136.82 8.10 138.03 8.61Q139.24 9.12 139.87 10.04Q140.51 10.96 140.51 12.21ZM136.32 15.44 137.95 15.26 140.45 19.30Q140.66 19.64 140.91 19.75Q141.15 19.85 141.43 19.90Q141.48 19.91 141.50 19.91Q141.51 19.92 141.51 19.95Q141.51 19.97 141.50 19.98Q141.48 20.00 141.45 20.00H138.05Q137.97 20.00 137.97 19.95Q137.97 19.92 137.99 19.92Q138.01 19.91 138.05 19.90L138.50 19.83Q138.69 19.79 138.73 19.66Q138.76 19.52 138.62 19.28Z M148.30 13.84H150.95Q151.59 13.84 151.89 13.54Q152.18 13.25 152.22 12.47Q152.23 12.43 152.24 12.41Q152.26 12.40 152.27 12.40Q152.33 12.38 152.35 12.49L153.18 15.21Q153.19 15.25 153.18 15.27Q153.18 15.30 153.16 15.31Q153.14 15.31 153.12 15.30Q153.10 15.30 153.07 15.27Q152.73 14.76 152.47 14.48Q152.20 14.20 151.89 14.09Q151.59 13.98 151.15 13.98H148.30ZM145.75 8.15Q145.75 8.13 145.76 8.11Q145.78 8.10 145.81 8.10H152.75Q152.93 8.10 153.08 8.04Q153.23 7.97 153.32 7.91Q153.42 7.85 153.45 7.85Q153.47 7.85 153.49 7.87Q153.50 7.90 153.52 8.01L154.24 10.79Q154.25 10.83 154.24 10.85Q154.23 10.87 154.21 10.87Q154.20 10.88 154.18 10.87Q154.16 10.86 154.14 10.83Q153.69 10.04 153.32 9.54Q152.95 9.03 152.64 8.75Q152.32 8.47 152.00 8.35Q151.69 8.24 151.33 8.24H148.67V19.51Q148.67 19.68 148.78 19.77Q148.88 19.86 149.09 19.86H151.42Q151.91 19.86 152.33 19.62Q152.75 19.38 153.23 18.68Q153.70 17.98 154.36 16.60Q154.39 16.56 154.41 16.54Q154.43 16.52 154.45 16.53Q154.48 16.53 154.48 16.56Q154.49 16.59 154.48 16.65L153.63 20.09Q153.61 20.19 153.59 20.22Q153.57 20.25 153.56 20.25Q153.50 20.25 153.39 20.19Q153.29 20.13 153.11 20.06Q152.94 20.00 152.66 20.00H145.81Q145.78 20.00 145.76 19.98Q145.75 19.97 145.75 19.95Q145.75 19.91 145.83 19.90L146.62 19.78Q146.78 19.76 146.85 19.71Q146.92 19.66 146.92 19.56V8.54Q146.92 8.44 146.85 8.39Q146.78 8.34 146.62 8.32L145.83 8.20Q145.75 8.19 145.75 8.15Z M162.16 19.56Q162.16 19.66 162.23 19.71Q162.30 19.76 162.46 19.78L163.25 19.90Q163.33 19.91 163.33 19.95Q163.33 19.97 163.32 19.99Q163.30 20.00 163.26 20.00H159.30Q159.27 20.00 159.25 19.99Q159.24 19.97 159.24 19.95Q159.24 19.91 159.32 19.90L160.11 19.78Q160.26 19.76 160.34 19.71Q160.41 19.66 160.41 19.56V8.54Q160.41 8.44 160.34 8.39Q160.26 8.34 160.11 8.32L159.32 8.20Q159.24 8.19 159.24 8.15Q159.24 8.13 159.25 8.11Q159.27 8.10 159.30 8.10H163.26Q163.30 8.10 163.32 8.11Q163.33 8.13 163.33 8.15Q163.33 8.19 163.25 8.20L162.46 8.32Q162.30 8.34 162.23 8.39Q162.16 8.44 162.16 8.54Z M169.98 15.40H174.43L174.45 15.55H169.94ZM170.19 19.95Q170.19 19.97 170.18 19.98Q170.17 20.00 170.14 20.00H167.70Q167.68 20.00 167.66 19.98Q167.64 19.97 167.64 19.95Q167.64 19.92 167.66 19.91Q167.69 19.90 167.71 19.90L168.10 19.78Q168.33 19.70 168.55 19.47Q168.77 19.23 168.93 18.68L171.87 8.88Q171.94 8.63 171.85 8.47Q171.77 8.32 171.48 8.24Q171.42 8.20 171.38 8.18Q171.34 8.17 171.34 8.15Q171.34 8.12 171.36 8.11Q171.37 8.10 171.41 8.10H174.09Q174.12 8.10 174.14 8.11Q174.15 8.12 174.15 8.15Q174.15 8.17 174.12 8.19Q174.09 8.21 174.01 8.24Q173.76 8.25 173.72 8.33Q173.67 8.40 173.74 8.59L177.23 19.46Q177.30 19.67 177.44 19.77Q177.59 19.87 177.81 19.89Q177.85 19.90 177.87 19.91Q177.88 19.92 177.88 19.95Q177.88 19.97 177.87 19.98Q177.86 20.00 177.83 20.00H174.64Q174.61 20.00 174.60 19.98Q174.58 19.97 174.58 19.95Q174.58 19.92 174.60 19.91Q174.63 19.91 174.66 19.90L175.12 19.85Q175.32 19.80 175.37 19.69Q175.42 19.57 175.36 19.40L171.97 8.75L172.14 8.45L169.08 18.71Q168.99 19.01 169.05 19.23Q169.12 19.46 169.32 19.60Q169.51 19.74 169.80 19.81L170.12 19.90Q170.16 19.91 170.18 19.92Q170.19 19.93 170.19 19.95Z  M195.13 16.23 194.96 16.48 198.06 8.32Q198.11 8.18 198.16 8.14Q198.20 8.10 198.29 8.10H200.64Q200.66 8.10 200.69 8.11Q200.71 8.13 200.71 8.15Q200.71 8.17 200.69 8.18Q200.66 8.19 200.62 8.20L199.77 8.33Q199.64 8.35 199.59 8.44Q199.53 8.53 199.53 8.69L200.30 19.46Q200.32 19.63 200.36 19.69Q200.41 19.75 200.56 19.78L201.35 19.90Q201.40 19.90 201.42 19.91Q201.44 19.92 201.44 19.95Q201.44 19.97 201.42 19.98Q201.40 20.00 201.37 20.00H197.46Q197.42 20.00 197.40 19.98Q197.38 19.97 197.38 19.95Q197.38 19.92 197.41 19.91Q197.43 19.90 197.47 19.90L198.26 19.78Q198.42 19.75 198.48 19.68Q198.55 19.61 198.55 19.46L197.81 9.13L197.94 9.07L194.43 18.55Q194.39 18.67 194.36 18.70Q194.33 18.73 194.30 18.73Q194.28 18.73 194.26 18.71Q194.24 18.69 194.22 18.65Q194.20 18.61 194.16 18.55L190.37 9.20L190.47 9.00L189.81 18.93Q189.79 19.23 189.97 19.43Q190.15 19.63 190.48 19.73L191.44 19.90Q191.48 19.91 191.51 19.92Q191.53 19.93 191.53 19.95Q191.53 19.97 191.51 19.98Q191.49 20.00 191.46 20.00H188.23Q188.20 20.00 188.19 19.98Q188.17 19.97 188.17 19.95Q188.17 19.92 188.19 19.91Q188.21 19.91 188.25 19.90L188.93 19.74Q189.25 19.64 189.44 19.44Q189.64 19.23 189.67 18.92L190.32 9.18Q190.35 8.79 190.29 8.58Q190.23 8.36 190.03 8.34L189.33 8.24Q189.23 8.23 189.18 8.21Q189.13 8.20 189.13 8.17Q189.13 8.10 189.27 8.10H191.65Q191.73 8.10 191.78 8.14Q191.82 8.18 191.87 8.30Z M207.63 15.40H212.07L212.10 15.55H207.58ZM207.84 19.95Q207.84 19.97 207.83 19.98Q207.81 20.00 207.79 20.00H205.35Q205.32 20.00 205.31 19.98Q205.29 19.97 205.29 19.95Q205.29 19.92 205.31 19.91Q205.33 19.90 205.36 19.90L205.75 19.78Q205.98 19.70 206.20 19.47Q206.42 19.23 206.58 18.68L209.51 8.88Q209.59 8.63 209.50 8.47Q209.41 8.32 209.13 8.24Q209.06 8.20 209.02 8.18Q208.99 8.17 208.99 8.15Q208.99 8.12 209.00 8.11Q209.02 8.10 209.05 8.10H211.73Q211.77 8.10 211.78 8.11Q211.80 8.12 211.80 8.15Q211.80 8.17 211.77 8.19Q211.73 8.21 211.66 8.24Q211.41 8.25 211.36 8.33Q211.32 8.40 211.38 8.59L214.88 19.46Q214.94 19.67 215.09 19.77Q215.23 19.87 215.45 19.89Q215.50 19.90 215.51 19.91Q215.53 19.92 215.53 19.95Q215.53 19.97 215.52 19.98Q215.51 20.00 215.47 20.00H212.28Q212.26 20.00 212.24 19.98Q212.22 19.97 212.22 19.95Q212.22 19.92 212.25 19.91Q212.28 19.91 212.31 19.90L212.77 19.85Q212.96 19.80 213.02 19.69Q213.07 19.57 213.01 19.40L209.62 8.75L209.79 8.45L206.73 18.71Q206.63 19.01 206.70 19.23Q206.77 19.46 206.96 19.60Q207.16 19.74 207.45 19.81L207.77 19.90Q207.80 19.91 207.82 19.92Q207.84 19.93 207.84 19.95Z M229.16 12.21Q229.16 13.07 228.78 13.76Q228.41 14.44 227.74 14.89Q227.07 15.33 226.15 15.49Q225.99 15.51 225.83 15.53Q225.66 15.55 225.50 15.56Q225.33 15.56 225.15 15.56Q224.55 15.56 224.04 15.49Q223.54 15.41 223.13 15.25Q222.73 15.09 222.42 14.83L222.49 14.72Q222.79 14.96 223.16 15.10Q223.52 15.25 223.92 15.31Q224.32 15.37 224.72 15.37Q225.94 15.37 226.66 14.58Q227.39 13.79 227.39 12.23Q227.39 11.07 226.93 10.17Q226.46 9.27 225.64 8.76Q224.82 8.24 223.76 8.24H222.82V19.48Q222.82 19.63 222.89 19.69Q222.96 19.75 223.11 19.78L223.90 19.90Q223.95 19.90 223.97 19.91Q223.99 19.92 223.99 19.95Q223.99 20.00 223.92 20.00H219.96Q219.93 20.00 219.91 19.98Q219.89 19.97 219.89 19.95Q219.89 19.91 219.98 19.90L220.77 19.78Q220.92 19.75 220.99 19.69Q221.06 19.63 221.06 19.48V8.54Q221.06 8.44 220.99 8.39Q220.92 8.34 220.77 8.32L219.98 8.20Q219.89 8.19 219.89 8.15Q219.89 8.13 219.91 8.11Q219.93 8.10 219.96 8.10H223.75Q225.47 8.10 226.67 8.61Q227.88 9.12 228.52 10.04Q229.16 10.96 229.16 12.21ZM224.97 15.44 226.60 15.26 229.10 19.30Q229.31 19.64 229.55 19.75Q229.79 19.85 230.07 19.90Q230.13 19.91 230.14 19.91Q230.16 19.92 230.16 19.95Q230.16 19.97 230.14 19.98Q230.13 20.00 230.09 20.00H226.69Q226.62 20.00 226.62 19.95Q226.62 19.92 226.64 19.92Q226.66 19.91 226.70 19.90L227.14 19.83Q227.34 19.79 227.37 19.66Q227.41 19.52 227.26 19.28Z M235.28 8.10H242.31Q242.47 8.10 242.61 8.04Q242.76 7.97 242.86 7.91Q242.97 7.85 243.01 7.85Q243.03 7.85 243.05 7.88Q243.06 7.90 243.09 8.01L243.62 11.01Q243.64 11.06 243.63 11.09Q243.62 11.13 243.60 11.13Q243.57 11.13 243.55 11.12Q243.53 11.10 243.51 11.06Q243.05 9.85 242.66 9.24Q242.27 8.64 241.89 8.44Q241.51 8.24 241.10 8.24H239.72V19.56Q239.72 19.66 239.79 19.71Q239.87 19.76 240.02 19.78L240.81 19.90Q240.90 19.91 240.90 19.95Q240.90 20.00 240.83 20.00H236.87Q236.83 20.00 236.82 19.98Q236.80 19.97 236.80 19.95Q236.80 19.91 236.88 19.90L237.67 19.78Q237.83 19.76 237.90 19.71Q237.97 19.66 237.97 19.56V8.24H236.59Q236.18 8.24 235.80 8.46Q235.42 8.69 235.03 9.29Q234.64 9.90 234.18 11.06Q234.17 11.10 234.15 11.12Q234.12 11.13 234.10 11.13Q234.07 11.13 234.07 11.09Q234.06 11.06 234.07 11.01L234.61 8.01Q234.63 7.90 234.65 7.88Q234.66 7.85 234.68 7.85Q234.72 7.85 234.80 7.91Q234.89 7.97 235.01 8.04Q235.13 8.10 235.28 8.10Z M251.19 19.56Q251.19 19.66 251.26 19.71Q251.33 19.76 251.49 19.78L252.28 19.90Q252.36 19.91 252.36 19.95Q252.36 19.97 252.34 19.99Q252.33 20.00 252.29 20.00H248.33Q248.30 20.00 248.28 19.99Q248.26 19.97 248.26 19.95Q248.26 19.91 248.35 19.90L249.14 19.78Q249.29 19.76 249.37 19.71Q249.44 19.66 249.44 19.56V8.54Q249.44 8.44 249.37 8.39Q249.29 8.34 249.14 8.32L248.35 8.20Q248.26 8.19 248.26 8.15Q248.26 8.13 248.28 8.11Q248.30 8.10 248.33 8.10H252.29Q252.33 8.10 252.34 8.11Q252.36 8.13 252.36 8.15Q252.36 8.19 252.28 8.20L251.49 8.32Q251.33 8.34 251.26 8.39Q251.19 8.44 251.19 8.54Z M260.49 19.95Q260.49 19.97 260.47 19.98Q260.45 20.00 260.42 20.00H257.16Q257.13 20.00 257.11 19.98Q257.10 19.97 257.10 19.95Q257.10 19.92 257.17 19.90L257.85 19.70Q258.15 19.61 258.33 19.43Q258.52 19.24 258.52 18.88V9.88Q258.52 9.75 258.50 9.69Q258.49 9.62 258.39 9.49L257.62 8.27Q257.59 8.22 257.56 8.18Q257.53 8.14 257.53 8.13Q257.53 8.11 257.55 8.10Q257.56 8.10 257.60 8.10H259.49Q259.55 8.10 259.59 8.15Q259.62 8.20 259.70 8.32L266.26 18.56L266.17 18.73V9.22Q266.17 8.86 265.97 8.67Q265.78 8.47 265.49 8.40L264.42 8.20Q264.33 8.18 264.33 8.15Q264.33 8.13 264.35 8.11Q264.36 8.10 264.40 8.10H267.66Q267.70 8.10 267.71 8.11Q267.73 8.13 267.73 8.15Q267.73 8.18 267.64 8.20L266.96 8.40Q266.68 8.47 266.49 8.67Q266.30 8.86 266.30 9.22V18.49Q266.30 18.58 266.34 18.66Q266.37 18.73 266.40 18.80L266.99 19.70Q267.07 19.81 267.10 19.87Q267.13 19.93 267.13 19.97Q267.13 19.97 267.11 19.99Q267.09 20.00 267.04 20.00H265.25Q265.11 20.00 265.11 19.88Q265.11 19.84 265.10 19.78Q265.08 19.73 265.04 19.67L258.40 9.40H258.66V18.89Q258.66 19.24 258.85 19.43Q259.03 19.62 259.31 19.70L260.40 19.90Q260.49 19.92 260.49 19.95Z M276.96 20.18Q276.14 20.18 275.61 19.95Q275.08 19.72 274.79 19.49Q274.50 19.25 274.39 19.25Q274.34 19.25 274.25 19.40Q274.15 19.54 274.03 19.73Q273.92 19.91 273.81 20.06Q273.71 20.20 273.65 20.20Q273.61 20.20 273.57 20.17Q273.53 20.14 273.51 20.09L272.83 16.69Q272.83 16.65 272.83 16.63Q272.83 16.60 272.85 16.59Q272.86 16.57 272.89 16.59Q272.92 16.61 272.93 16.64Q273.53 17.94 274.16 18.68Q274.80 19.42 275.47 19.73Q276.14 20.03 276.84 20.03Q277.81 20.03 278.40 19.49Q278.98 18.94 278.98 17.93Q278.98 17.31 278.72 16.79Q278.47 16.27 277.84 15.81Q277.22 15.35 276.12 14.95Q274.83 14.47 274.05 13.91Q273.28 13.36 272.94 12.69Q272.60 12.03 272.60 11.21Q272.60 10.23 273.08 9.49Q273.56 8.75 274.39 8.34Q275.23 7.93 276.27 7.93Q277.05 7.93 277.54 8.13Q278.03 8.32 278.31 8.52Q278.59 8.71 278.71 8.71Q278.81 8.71 278.97 8.51Q279.14 8.31 279.30 8.11Q279.46 7.91 279.53 7.91Q279.55 7.91 279.58 7.93Q279.61 7.95 279.62 8.01L280.51 11.47Q280.51 11.50 280.51 11.53Q280.51 11.55 280.49 11.57Q280.47 11.58 280.45 11.56Q280.42 11.54 280.40 11.52Q279.77 10.20 279.12 9.45Q278.48 8.69 277.80 8.38Q277.11 8.07 276.37 8.07Q275.38 8.07 274.74 8.68Q274.10 9.29 274.10 10.39Q274.10 11.02 274.35 11.56Q274.61 12.09 275.21 12.56Q275.81 13.03 276.88 13.43Q278.23 13.93 279.01 14.49Q279.78 15.04 280.11 15.68Q280.43 16.32 280.43 17.08Q280.43 17.94 280.02 18.65Q279.61 19.35 278.84 19.77Q278.06 20.18 276.96 20.18Z" fill="#0F1B2D"/><path d="M86.19 36.00 88.62 29.25H89.92L92.36 36.00H91.26L90.65 34.24H87.89L87.28 36.00ZM88.21 33.31H90.33L89.27 30.23Z M97.73 36.00V29.25H99.90Q101.48 29.25 102.34 30.13Q103.19 31.01 103.19 32.64Q103.19 34.25 102.35 35.13Q101.51 36.00 99.96 36.00ZM98.76 35.06H99.90Q101.02 35.06 101.58 34.46Q102.13 33.85 102.13 32.64Q102.13 31.40 101.58 30.80Q101.02 30.20 99.90 30.20H98.76Z M110.57 36.00 108.13 29.25H109.23L111.21 34.86L113.20 29.25H114.29L111.85 36.00Z M122.41 36.15Q121.44 36.15 120.73 35.73Q120.03 35.31 119.65 34.52Q119.27 33.73 119.27 32.64Q119.27 31.54 119.65 30.75Q120.03 29.96 120.73 29.53Q121.44 29.10 122.41 29.10Q123.40 29.10 124.11 29.53Q124.82 29.96 125.19 30.75Q125.57 31.54 125.57 32.64Q125.57 33.73 125.19 34.52Q124.82 35.31 124.11 35.73Q123.40 36.15 122.41 36.15ZM122.41 35.21Q123.07 35.21 123.54 34.91Q124.01 34.60 124.26 34.03Q124.50 33.45 124.50 32.64Q124.50 31.82 124.26 31.24Q124.01 30.66 123.54 30.35Q123.07 30.04 122.41 30.04Q121.77 30.04 121.30 30.35Q120.84 30.66 120.58 31.24Q120.33 31.82 120.33 32.64Q120.33 33.45 120.58 34.03Q120.84 34.60 121.30 34.91Q121.77 35.21 122.41 35.21Z M133.82 36.15Q132.86 36.15 132.18 35.70Q131.50 35.25 131.13 34.46Q130.77 33.66 130.77 32.64Q130.77 31.62 131.14 30.82Q131.50 30.02 132.20 29.56Q132.89 29.10 133.86 29.10Q134.69 29.10 135.26 29.40Q135.84 29.69 136.17 30.20Q136.51 30.72 136.64 31.37L135.57 31.43Q135.46 30.81 135.06 30.43Q134.66 30.04 133.86 30.04Q133.16 30.04 132.71 30.40Q132.27 30.75 132.05 31.34Q131.84 31.92 131.84 32.64Q131.84 33.38 132.05 33.96Q132.27 34.54 132.72 34.87Q133.17 35.21 133.87 35.21Q134.42 35.21 134.82 34.97Q135.22 34.74 135.44 34.33Q135.67 33.92 135.69 33.43H133.88V32.56H136.66V36.00H135.96L135.89 34.48L136.03 34.59Q135.92 35.05 135.60 35.40Q135.28 35.75 134.82 35.95Q134.36 36.15 133.82 36.15Z M141.69 36.00 144.12 29.25H145.42L147.85 36.00H146.76L146.14 34.24H143.39L142.78 36.00ZM143.71 33.31H145.83L144.77 30.23Z M153.23 36.00V29.25H155.40Q156.98 29.25 157.84 30.13Q158.69 31.01 158.69 32.64Q158.69 34.25 157.85 35.13Q157.01 36.00 155.45 36.00ZM154.26 35.06H155.40Q156.52 35.06 157.07 34.46Q157.63 33.85 157.63 32.64Q157.63 31.40 157.07 30.80Q156.52 30.20 155.40 30.20H154.26Z M163.63 36.00 166.07 29.25H167.37L169.80 36.00H168.71L168.09 34.24H165.33L164.73 36.00ZM165.66 33.31H167.78L166.71 30.23Z" fill="#2F5680"/></svg>
